<svg version="1.1" xmlns="http://www.w3.org/2000/svg" xmlns:xlink="http://www.w3.org/1999/xlink" x="0px" y="0px" viewBox="0 0 1000 1000" enable-background="new 0 0 1000 1000" xml:space="preserve">
<metadata> Svg Vector Icons : http://www.onlinewebfonts.com/icon </metadata>
    <g><path d="M990,438.8h-96.6C867,268.2,731.8,133,561.3,106.6V10H438.8v96.6C268.2,133,133,268.2,106.6,438.8H10v122.5h96.6C133,731.8,268.2,867,438.8,893.4V990h122.5v-96.6C731.8,867,867,731.8,893.4,561.3H990V438.8z M768.8,438.8h-95.5c-18.5-52.2-59.8-93.6-112-112v-95.5C664.2,254.7,745.3,335.9,768.8,438.8L768.8,438.8z M500,561.3c-33.8,0-61.3-27.4-61.3-61.3c0-33.8,27.4-61.3,61.3-61.3c33.8,0,61.3,27.4,61.3,61.3C561.3,533.8,533.8,561.3,500,561.3z M438.8,231.2v95.5c-52.2,18.5-93.6,59.8-112,112h-95.5C254.7,335.9,335.9,254.7,438.8,231.2z M231.2,561.3h95.5c18.5,52.2,59.8,93.6,112,112v95.5C335.9,745.3,254.7,664.1,231.2,561.3L231.2,561.3z M561.3,768.8v-95.5c52.2-18.5,93.6-59.8,112-112h95.5C745.3,664.2,664.1,745.3,561.3,768.8L561.3,768.8z"/></g>
</svg>
